<svg width="20" height="20" viewBox="0 0 20 20" fill="none" xmlns="http://www.w3.org/2000/svg">
<g id="Back">
<g id="Vector">
<path d="M17.225 10.8333H3.49995V9.16666H17.225C17.3666 9.16666 17.4749 9.27499 17.4749 9.41666V10.5833C17.4749 10.725 17.3666 10.8333 17.225 10.8333Z" fill="#070707"/>
<path d="M9.22497 16.9L2.67497 10.35C2.4833 10.1583 2.4833 9.84166 2.67497 9.64166L9.22497 3.09166C9.41664 2.89999 9.7333 2.89999 9.9333 3.09166L10.4083 3.56666C10.6 3.75832 10.6 4.07499 10.4083 4.27499L4.6833 9.99999L10.4083 15.725C10.6 15.9167 10.6 16.2333 10.4083 16.4333L9.9333 16.9083C9.74164 17.1 9.42497 17.1 9.22497 16.9083V16.9Z" fill="#070707"/>
</g>
</g>
</svg>
