<svg width="24" height="24" viewBox="0 0 24 24" fill="none" xmlns="http://www.w3.org/2000/svg">
<g id="Collapse-left">
<path id="Vector" d="M17.7 4.1V11H7.86L11.86 6.95C12.09 6.71 12.09 6.33 11.86 6.1L11.29 5.54C11.05 5.31 10.67 5.31 10.44 5.54L4.48 11.58C4.25 11.81 4.25 12.19 4.48 12.42L10.45 18.47C10.68 18.71 11.06 18.71 11.3 18.47L11.87 17.91C12.11 17.68 12.11 17.3 11.87 17.06L7.86 12.99H17.7V19.9C17.7 20.23 17.97 20.5 18.3 20.5H19.1C19.43 20.5 19.7 20.23 19.7 19.9V4.1C19.7 3.77 19.43 3.5 19.1 3.5H18.3C17.97 3.5 17.7 3.77 17.7 4.1Z" fill="#1D1D1B"/>
</g>
</svg>
