<svg width="20" height="20" viewBox="0 0 20 20" fill="none" xmlns="http://www.w3.org/2000/svg">
<path d="M17.7666 10.8667H15.8166V9.20001H17.7666C18.0416 9.20001 18.2666 9.42501 18.2666 9.70001V10.3667C18.2666 10.6417 18.0416 10.8667 17.7666 10.8667Z" fill="white"/>
<path d="M11.8916 10.8667H2.23328C1.95828 10.8667 1.73328 10.6417 1.73328 10.3667V9.70001C1.73328 9.42501 1.95828 9.20001 2.23328 9.20001H11.8916V10.8667Z" fill="white"/>
<path d="M13.8333 12.6167C12.3916 12.6167 11.2166 11.4417 11.2166 10C11.2166 8.55834 12.3916 7.38334 13.8333 7.38334C15.2749 7.38334 16.4499 8.55834 16.4499 10C16.4499 11.4417 15.2749 12.6167 13.8333 12.6167ZM13.8333 9.05001C13.3083 9.05001 12.8833 9.47501 12.8833 10C12.8833 10.525 13.3083 10.95 13.8333 10.95C14.3583 10.95 14.7833 10.525 14.7833 10C14.7833 9.47501 14.3583 9.05001 13.8333 9.05001Z" fill="white"/>
<path d="M17.7666 17.3833H8.04156V15.7167H17.7666C18.0416 15.7167 18.2666 15.9417 18.2666 16.2167V16.8833C18.2666 17.1583 18.0416 17.3833 17.7666 17.3833Z" fill="white"/>
<path d="M4.38328 17.3833H2.23328C1.95828 17.3833 1.73328 17.1583 1.73328 16.8833V16.2167C1.73328 15.9417 1.95828 15.7167 2.23328 15.7167H4.38328V17.3833Z" fill="white"/>
<path d="M6.25831 19.1667C4.81664 19.1667 3.64164 17.9917 3.64164 16.55C3.64164 15.1083 4.81664 13.9333 6.25831 13.9333C7.69998 13.9333 8.87498 15.1083 8.87498 16.55C8.87498 17.9917 7.69998 19.1667 6.25831 19.1667ZM6.25831 15.6C5.73331 15.6 5.30831 16.025 5.30831 16.55C5.30831 17.075 5.73331 17.5 6.25831 17.5C6.78331 17.5 7.20831 17.075 7.20831 16.55C7.20831 16.025 6.78331 15.6 6.25831 15.6Z" fill="white"/>
<path d="M17.7666 4.28334H8.01664V2.61668H17.7666C18.0416 2.61668 18.2666 2.84168 18.2666 3.11668V3.78334C18.2666 4.05834 18.0416 4.28334 17.7666 4.28334Z" fill="white"/>
<path d="M4.31661 4.28334H2.23328C1.95828 4.28334 1.73328 4.05834 1.73328 3.78334V3.11668C1.73328 2.84168 1.95828 2.61668 2.23328 2.61668H4.31661V4.28334Z" fill="white"/>
<path d="M6.16665 6.06668C4.74165 6.06668 3.56665 4.90834 3.54999 3.48334V3.45001C3.54999 2.00834 4.72499 0.833344 6.16665 0.833344C7.60832 0.833344 8.78332 2.00834 8.78332 3.45001C8.78332 4.89168 7.60832 6.06668 6.16665 6.06668ZM6.16665 2.50001C5.64165 2.50001 5.21665 2.92501 5.21665 3.45001V3.47501C5.21665 3.98334 5.64999 4.40001 6.16665 4.40001C6.68332 4.40001 7.11665 3.97501 7.11665 3.45001C7.11665 2.92501 6.69165 2.50001 6.16665 2.50001Z" fill="white"/>
</svg>
