<svg width="20" height="20" viewBox="0 0 20 20" fill="none" xmlns="http://www.w3.org/2000/svg">
<g id="Statistics">
<g id="Vector">
<path d="M17.8417 17.5H2.15833C2.02025 17.5 1.90833 17.612 1.90833 17.75V18.9167C1.90833 19.0548 2.02025 19.1667 2.15833 19.1667H17.8417C17.9797 19.1667 18.0917 19.0548 18.0917 18.9167V17.75C18.0917 17.612 17.9797 17.5 17.8417 17.5Z" fill="white"/>
<path d="M8.32496 15.8834H7.1583C7.01663 15.8834 6.9083 15.775 6.9083 15.6334V3.00004C6.9083 2.72504 6.6833 2.50004 6.4083 2.50004H5.36663C5.09163 2.50004 4.86663 2.72504 4.86663 3.00004V15.5917C4.86663 15.7334 4.7583 15.8417 4.61663 15.8417H3.44996C3.3083 15.8417 3.19996 15.7334 3.19996 15.5917V1.83337C3.19996 1.28337 3.64996 0.833374 4.19996 0.833374H7.57496C8.12496 0.833374 8.57496 1.28337 8.57496 1.83337V15.6334C8.57496 15.775 8.46663 15.8834 8.32496 15.8834Z" fill="white"/>
<path d="M16.55 15.8834H15.3833C15.2416 15.8834 15.1333 15.775 15.1333 15.6334V7.3917C15.1333 7.1167 14.9083 6.8917 14.6333 6.8917H13.5916C13.3166 6.8917 13.0916 7.1167 13.0916 7.3917V15.6084C13.0916 15.75 12.9833 15.8584 12.8416 15.8584H11.675C11.5333 15.8584 11.425 15.75 11.425 15.6084V6.22504C11.425 5.67504 11.875 5.22504 12.425 5.22504H15.8C16.35 5.22504 16.8 5.67504 16.8 6.22504V15.6334C16.8 15.775 16.6916 15.8834 16.55 15.8834Z" fill="white"/>
</g>
</g>
</svg>
