<svg width="113" height="36" viewBox="0 0 113 36" fill="none" xmlns="http://www.w3.org/2000/svg">
<path d="M101.267 22.2991L101.283 11.2306H103.404V17.9947L106.217 13.9977H108.8L105.802 18.1484L109 22.2991H106.279L103.404 18.3022V22.2991H101.267Z" fill="white"/>
<path d="M95.8254 22.5297C94.9645 22.5297 94.2266 22.3375 93.6117 21.9532C92.9968 21.5689 92.5253 21.0462 92.1974 20.3852C91.8694 19.7241 91.7054 18.9786 91.7054 18.1484C91.7054 17.308 91.8745 16.5573 92.2128 15.8963C92.5561 15.2352 93.0378 14.7151 93.6578 14.3359C94.2779 13.9567 95.0106 13.7671 95.8561 13.7671C96.8349 13.7671 97.6548 14.0157 98.3158 14.5127C98.982 15.0046 99.4073 15.6785 99.5918 16.5343L97.501 17.0877C97.3781 16.6572 97.1628 16.3216 96.8554 16.0808C96.5531 15.8399 96.2097 15.7195 95.8254 15.7195C95.3847 15.7195 95.0234 15.8271 94.7416 16.0423C94.4598 16.2524 94.2522 16.5419 94.119 16.9109C93.9858 17.2747 93.9192 17.6872 93.9192 18.1484C93.9192 18.8709 94.078 19.4577 94.3957 19.9086C94.7185 20.3544 95.1951 20.5773 95.8254 20.5773C96.2968 20.5773 96.6555 20.4697 96.9015 20.2545C97.1475 20.0393 97.3319 19.7318 97.4549 19.3321L99.5918 19.7779C99.3561 20.6593 98.9102 21.3383 98.2543 21.8149C97.5984 22.2914 96.7888 22.5297 95.8254 22.5297Z" fill="white"/>
<path d="M85.3562 22.5297C84.7618 22.5297 84.2571 22.417 83.842 22.1915C83.4321 21.9609 83.1195 21.656 82.9043 21.2768C82.6942 20.8925 82.5891 20.4697 82.5891 20.0085C82.5891 19.6242 82.648 19.2732 82.7659 18.9555C82.8838 18.6378 83.0734 18.3585 83.3347 18.1177C83.6012 17.8717 83.9573 17.6667 84.4031 17.5027C84.7106 17.39 85.077 17.2901 85.5023 17.203C85.9276 17.1159 86.4093 17.0339 86.9473 16.957C87.4854 16.875 88.0773 16.7853 88.7229 16.688L87.9696 17.1031C87.9696 16.6111 87.8518 16.2499 87.6161 16.0193C87.3803 15.7887 86.9858 15.6734 86.4324 15.6734C86.1249 15.6734 85.8046 15.7477 85.4715 15.8963C85.1385 16.0449 84.9053 16.3088 84.7721 16.688L82.8812 16.0884C83.0913 15.4018 83.4859 14.8432 84.0649 14.4128C84.644 13.9823 85.4331 13.7671 86.4324 13.7671C87.1651 13.7671 87.8159 13.8799 88.3847 14.1053C88.9535 14.3308 89.384 14.7202 89.676 15.2737C89.84 15.5811 89.9374 15.8886 89.9681 16.196C89.9989 16.5035 90.0143 16.8468 90.0143 17.226V22.2991H88.1849V20.5927L88.4462 20.9463C88.0414 21.5048 87.6033 21.9097 87.1318 22.1608C86.6655 22.4067 86.0737 22.5297 85.3562 22.5297ZM85.8021 20.8848C86.1864 20.8848 86.5092 20.8182 86.7706 20.685C87.037 20.5466 87.2471 20.3903 87.4008 20.2161C87.5597 20.0419 87.6673 19.8958 87.7237 19.7779C87.8313 19.5525 87.8928 19.2911 87.9082 18.9939C87.9287 18.6916 87.9389 18.4405 87.9389 18.2407L88.5538 18.3944C87.9338 18.4969 87.4316 18.584 87.0473 18.6557C86.6629 18.7223 86.3529 18.7838 86.1172 18.8402C85.8815 18.8966 85.674 18.9581 85.4946 19.0247C85.2896 19.1067 85.1231 19.1963 84.995 19.2937C84.872 19.3859 84.7798 19.4884 84.7183 19.6012C84.6619 19.7139 84.6337 19.8394 84.6337 19.9778C84.6337 20.1674 84.6798 20.3314 84.7721 20.4697C84.8694 20.603 85.0052 20.7055 85.1795 20.7772C85.3537 20.8489 85.5612 20.8848 85.8021 20.8848Z" fill="white"/>
<path d="M71.6071 22.2991V11.2306H73.6978V15.781H78.6479V11.2306H80.7387V22.2991H78.6479V17.7334H73.6978V22.2991H71.6071Z" fill="white"/>
<path d="M62.7276 22.5297C61.8769 22.5297 61.1262 22.3478 60.4754 21.984C59.8298 21.615 59.3225 21.1103 58.9535 20.4697C58.5897 19.8241 58.4078 19.0862 58.4078 18.256C58.4078 17.349 58.5871 16.5599 58.9458 15.8886C59.3045 15.2173 59.799 14.6972 60.4293 14.3282C61.0596 13.9542 61.7847 13.7671 62.6046 13.7671C63.4757 13.7671 64.2162 13.9721 64.826 14.382C65.4358 14.792 65.8867 15.3685 66.1788 16.1115C66.4709 16.8545 66.5734 17.7282 66.4863 18.7326H64.4186V17.9639C64.4186 17.1184 64.2828 16.5112 64.0112 16.1422C63.7448 15.7682 63.3066 15.5811 62.6968 15.5811C61.9846 15.5811 61.4593 15.7989 61.1211 16.2345C60.788 16.6649 60.6215 17.3029 60.6215 18.1484C60.6215 18.9222 60.788 19.5217 61.1211 19.9471C61.4593 20.3672 61.9538 20.5773 62.6046 20.5773C63.0145 20.5773 63.3656 20.4877 63.6576 20.3083C63.9497 20.129 64.1726 19.8702 64.3264 19.532L66.4171 20.1315C66.1045 20.8899 65.61 21.4792 64.9336 21.8994C64.2623 22.3196 63.527 22.5297 62.7276 22.5297ZM59.9758 18.7326V17.1799H65.4793V18.7326H59.9758Z" fill="white"/>
<path d="M54.3201 22.2991V11H56.4108V22.2991H54.3201Z" fill="white"/>
<path d="M48.4934 22.5297C47.6684 22.5297 46.9792 22.3375 46.4258 21.9532C45.8724 21.5689 45.4547 21.0462 45.1729 20.3852C44.8962 19.7241 44.7578 18.9786 44.7578 18.1484C44.7578 17.3183 44.8962 16.5727 45.1729 15.9116C45.4496 15.2506 45.857 14.7279 46.395 14.3436C46.9331 13.9593 47.5967 13.7671 48.3858 13.7671C49.1801 13.7671 49.8719 13.9567 50.4612 14.3359C51.0505 14.7151 51.5065 15.2352 51.8294 15.8963C52.1573 16.5522 52.3213 17.3029 52.3213 18.1484C52.3213 18.9786 52.1599 19.7241 51.8371 20.3852C51.5194 21.0462 51.0735 21.5689 50.4996 21.9532C49.9257 22.3375 49.257 22.5297 48.4934 22.5297ZM44.4042 25.9886V13.9977H46.249V19.6857H46.5103V25.9886H44.4042ZM48.1552 20.6696C48.6062 20.6696 48.9751 20.5568 49.2621 20.3314C49.5491 20.1059 49.7617 19.8036 49.9001 19.4244C50.0384 19.04 50.1076 18.6147 50.1076 18.1484C50.1076 17.6872 50.0359 17.267 49.8924 16.8878C49.7489 16.5035 49.526 16.1986 49.2237 15.9731C48.9264 15.7425 48.5447 15.6272 48.0784 15.6272C47.6428 15.6272 47.2892 15.7323 47.0176 15.9424C46.7512 16.1525 46.5564 16.4471 46.4335 16.8263C46.3105 17.2055 46.249 17.6462 46.249 18.1484C46.249 18.6506 46.3105 19.0913 46.4335 19.4705C46.5564 19.8497 46.7563 20.1443 47.033 20.3544C47.3148 20.5645 47.6889 20.6696 48.1552 20.6696Z" fill="white"/>
<path d="M37.9305 22.2991V13.9977H39.7753V16.0269L39.5754 15.7656C39.6831 15.4786 39.8265 15.2173 40.0059 14.9816C40.1852 14.7459 40.4056 14.5511 40.6669 14.3974C40.8668 14.2744 41.0846 14.1796 41.3203 14.113C41.556 14.0413 41.7994 13.9977 42.0505 13.9823C42.3016 13.9618 42.5527 13.967 42.8038 13.9977V15.9501C42.5732 15.8783 42.3042 15.8553 41.9967 15.8809C41.6944 15.9014 41.4202 15.9706 41.1742 16.0884C40.9283 16.2012 40.7207 16.3523 40.5516 16.5419C40.3825 16.7264 40.2544 16.9467 40.1673 17.203C40.0802 17.4541 40.0366 17.7385 40.0366 18.0562V22.2991H37.9305Z" fill="white"/>
<path d="M31.0937 22.5451C30.4429 22.5451 29.9125 22.4349 29.5026 22.2146C29.0926 21.9942 28.7724 21.7149 28.5418 21.3767C28.3163 21.0385 28.1549 20.6875 28.0575 20.3237C27.9601 19.9547 27.9012 19.6191 27.8807 19.3168C27.8602 19.0144 27.85 18.7941 27.85 18.6557V13.9977H29.9714V17.9178C29.9714 18.1074 29.9817 18.3508 30.0022 18.648C30.0227 18.9401 30.0867 19.2348 30.1944 19.532C30.302 19.8292 30.4762 20.0777 30.717 20.2776C30.963 20.4774 31.3089 20.5773 31.7547 20.5773C31.9341 20.5773 32.1262 20.5492 32.3312 20.4928C32.5362 20.4364 32.7283 20.3288 32.9077 20.17C33.087 20.006 33.2331 19.7677 33.3458 19.4551C33.4637 19.1374 33.5226 18.7223 33.5226 18.2099L34.7217 18.7787C34.7217 19.4346 34.5885 20.0495 34.322 20.6235C34.0555 21.1974 33.6533 21.6611 33.1152 22.0147C32.5823 22.3683 31.9084 22.5451 31.0937 22.5451ZM33.7839 22.2991V19.5473H33.5226V13.9977H35.6287V22.2991H33.7839Z" fill="white"/>
<path d="M17.8514 22.2991V11.2306H22.5248C22.6324 11.2306 22.7759 11.2357 22.9552 11.246C23.1397 11.2511 23.3037 11.2665 23.4471 11.2921C24.1082 11.3946 24.6488 11.6124 25.069 11.9454C25.4943 12.2785 25.8069 12.6987 26.0067 13.206C26.2066 13.7082 26.3065 14.2693 26.3065 14.8894C26.3065 15.5094 26.204 16.0731 25.999 16.5804C25.7992 17.0826 25.4866 17.5002 25.0613 17.8333C24.6411 18.1664 24.103 18.3841 23.4471 18.4866C23.3037 18.5071 23.1397 18.5225 22.9552 18.5327C22.7707 18.543 22.6272 18.5481 22.5248 18.5481H19.9421V22.2991H17.8514ZM19.9421 16.5958H22.4325C22.5401 16.5958 22.658 16.5906 22.7861 16.5804C22.9142 16.5701 23.0321 16.5496 23.1397 16.5189C23.4215 16.442 23.6393 16.3139 23.793 16.1346C23.9468 15.9501 24.0518 15.7477 24.1082 15.5273C24.1697 15.3019 24.2004 15.0892 24.2004 14.8894C24.2004 14.6895 24.1697 14.4794 24.1082 14.2591C24.0518 14.0336 23.9468 13.8312 23.793 13.6518C23.6393 13.4674 23.4215 13.3367 23.1397 13.2598C23.0321 13.2291 22.9142 13.2086 22.7861 13.1983C22.658 13.1881 22.5401 13.183 22.4325 13.183H19.9421V16.5958Z" fill="white"/>
<path d="M8.11619 22.2991V13.183H4.62653V11.2306H13.6966V13.183H10.2069V22.2991H8.11619Z" fill="white"/>
<path d="M1 22.2991V11.2306H3.09072V22.2991H1Z" fill="white"/>
</svg>
